<?xml version="1.0" encoding="UTF-8"?>
<svg version="1.1" xmlns="http://www.w3.org/2000/svg" width="1414" height="295">
<path d="M0 0 C466.62 0 933.24 0 1414 0 C1414 97.02 1414 194.04 1414 294 C947.38 294 480.76 294 0 294 C0 196.98 0 99.96 0 0 Z " fill="#FEFEFE" transform="translate(0,1)"/>
<path d="M0 0 C0.89847656 -0.020625 1.79695312 -0.04125 2.72265625 -0.0625 C8.74170644 -0.09806307 12.15976904 0.40836041 16.63037109 4.69262695 C20.75123574 9.0674828 22.75559595 13.53701489 24.625 19.1875 C25.15509464 20.71784861 25.68639552 22.24777979 26.21875 23.77734375 C26.50758057 24.619021 26.79641113 25.46069824 27.09399414 26.32788086 C28.33389653 29.84206313 29.64693435 33.32707317 30.96484375 36.8125 C33.88859324 44.55951014 36.68251962 52.34832831 39.42993164 60.15942383 C40.18874551 62.31603986 40.95065112 64.47154579 41.71289062 66.62695312 C44.55476719 74.68151058 47.31154007 82.75600763 49.94702148 90.88061523 C51.18678904 94.42673585 52.60854016 97.81467619 54.125 101.25 C54.681875 99.88875 54.681875 99.88875 55.25 98.5 C57.51333525 94.57688557 59.1075894 93.33923246 63.125 91.25 C66.47519097 90.70932061 69.73873488 90.73531307 73.125 90.8125 C74.0015625 90.80541016 74.878125 90.79832031 75.78125 90.79101562 C80.91726877 90.84129292 84.78381875 91.22573196 89.125 94.25 C93.12042418 98.98443418 92.54811691 104.14360797 92.51318359 110.01953125 C92.51844055 111.10462982 92.52369751 112.18972839 92.52911377 113.30770874 C92.54231224 116.89278579 92.53357587 120.47741846 92.5234375 124.0625 C92.52545827 126.55444423 92.52836973 129.04638788 92.53213501 131.53833008 C92.53712459 137.42902715 92.52662867 143.31956309 92.5106827 149.21023655 C92.49941889 153.90552239 92.50340323 158.6006196 92.51611328 163.29589844 C92.53349474 169.77262849 92.53623354 176.24917621 92.5264473 182.72592163 C92.52444532 185.19469241 92.52690446 187.66347095 92.53388596 190.13223267 C92.54150025 193.58185429 92.5298957 197.03089073 92.51318359 200.48046875 C92.51925629 201.50191986 92.52532898 202.52337097 92.53158569 203.57577515 C92.45394194 212.22205448 92.45394194 212.22205448 89.125 216.25 C84.55159773 220.28169831 79.10039086 219.83659329 73.3125 219.875 C72.35279297 219.92011719 71.39308594 219.96523438 70.40429688 220.01171875 C65.34617432 220.06005576 61.80454988 219.60439886 57.73828125 216.4609375 C54.85159693 213.4461854 53.23321742 210.63632969 51.68774414 206.77026367 C51.26190536 205.7074115 50.83606659 204.64455933 50.39732361 203.54949951 C48.3705237 198.29342687 46.41747661 193.01452314 44.5078125 187.71484375 C44.08756805 186.55610245 43.66732361 185.39736115 43.23434448 184.20350647 C41.90354261 180.53247093 40.57662168 176.86004797 39.25 173.1875 C37.93353041 169.55085571 36.61624482 165.91450792 35.29876709 162.27822876 C34.4434046 159.91719615 33.58845955 157.55601226 32.73394775 155.19467163 C29.94364426 147.48894333 27.1291085 139.792622 24.27420044 132.11058044 C22.81699782 128.1791948 21.42570727 124.2368826 20.125 120.25 C20.12135437 120.80043976 20.11770874 121.35087952 20.11395264 121.91799927 C20.07205323 127.66125292 20.00265613 133.40371295 19.91748047 139.14648438 C19.88930256 141.28800509 19.86807225 143.42962918 19.85400391 145.57128906 C19.83253075 148.65483407 19.78585683 151.73714018 19.734375 154.8203125 C19.73253204 156.25034103 19.73253204 156.25034103 19.73065186 157.70925903 C19.60326256 163.52668172 18.92386422 166.77892336 15.125 171.25 C10.60493871 175.22294028 5.40570385 174.76580706 -0.3125 174.75 C-1.24126953 174.77835938 -2.17003906 174.80671875 -3.12695312 174.8359375 C-7.64986839 174.84881413 -10.87396967 174.7647967 -14.47265625 171.84375 C-18.03275736 167.99999856 -18.00432547 166.13666288 -18.02890015 160.97564697 C-18.0332824 160.32480314 -18.03766465 159.67395931 -18.0421797 159.00339293 C-18.05558324 156.81248043 -18.06175003 154.62160817 -18.06787109 152.43066406 C-18.07577088 150.86376767 -18.08403975 149.29687311 -18.09265137 147.72998047 C-18.11888706 142.57521303 -18.13418109 137.4204374 -18.1484375 132.265625 C-18.15379665 130.4920018 -18.15917416 128.71837865 -18.16456985 126.94475555 C-18.18620134 119.56730478 -18.20493826 112.18985621 -18.21619225 104.81238174 C-18.23243231 94.23537441 -18.26560823 83.6587344 -18.32259309 73.08186555 C-18.3612834 65.64739799 -18.38082388 58.21302872 -18.38611281 50.77846313 C-18.3897677 46.33700773 -18.40180309 41.89594397 -18.43421555 37.45459747 C-18.46428017 33.27498045 -18.47061401 29.09599235 -18.45883179 24.91629028 C-18.45861091 23.38363044 -18.46692779 21.85094155 -18.48448563 20.31838226 C-18.62554893 7.29478475 -18.62554893 7.29478475 -15.52603149 3.35394287 C-10.66423377 -0.50453436 -5.93055483 0.03374427 0 0 Z " fill="#2D3F51" transform="translate(631.875,41.75)"/>
<path d="M0 0 C1.47823242 -0.0309375 1.47823242 -0.0309375 2.98632812 -0.0625 C8.44904975 -0.09184975 12.53238033 0.04164055 17.1875 3.25 C19.55391333 6.79961999 19.44171082 8.29837744 19.45251465 12.50811768 C19.46078781 13.82000061 19.46906097 15.13188354 19.47758484 16.48352051 C19.47676017 17.94116221 19.4757625 19.39880383 19.47460938 20.85644531 C19.480633 22.38918421 19.4875571 23.92191979 19.49531555 25.45465088 C19.5102216 28.75966616 19.51895832 32.06462084 19.52302551 35.36966705 C19.52974335 40.60805783 19.55150828 45.84631986 19.57556152 51.08465576 C19.62457263 62.2230736 19.6567951 73.36151899 19.6875 84.5 C19.72062698 96.48453446 19.75683678 108.46901869 19.81163073 120.45347667 C19.83481526 125.64685682 19.84867976 130.84014884 19.85512543 136.03357553 C19.86112379 139.28803138 19.87527236 142.54241733 19.89146996 145.79683685 C19.89727726 147.2902077 19.89983274 148.78359589 19.89863014 150.27697754 C19.89363324 158.96785631 20.42521116 167.36866192 21.76009369 175.95090866 C22.17158387 179.12714554 22.41655638 182.05446808 22.1875 185.25 C15.84430313 192.00055814 5.38993177 192.42062887 -3.375 192.75 C-6.81640625 192.84375 -6.81640625 192.84375 -9.8125 192.25 C-14.2091784 187.8237641 -15.8125 183.44999402 -15.8125 177.25 C-16.4725 177.25 -17.1325 177.25 -17.8125 177.25 C-18.08964844 177.83910156 -18.36679688 178.42820313 -18.65234375 179.03515625 C-21.6552227 184.76792515 -26.15517852 189.40538081 -31.921875 192.3671875 C-39.40023559 194.65111925 -49.40532486 194.92181135 -56.5625 191.5 C-58.17125 190.38625 -58.17125 190.38625 -59.8125 189.25 C-61.0809375 188.445625 -61.0809375 188.445625 -62.375 187.625 C-74.51139292 175.79979664 -78.56612212 160.42715291 -80.8125 144.25 C-80.99554687 143.20070312 -81.17859375 142.15140625 -81.3671875 141.0703125 C-83.96722591 118.76471985 -83.3582856 91.27216997 -69.5 72.4375 C-62.40004916 63.99100676 -55.13227692 57.85409911 -43.81640625 56.80078125 C-42.35743211 56.72754711 -40.89764788 56.66901069 -39.4375 56.625 C-38.4311853 56.57194702 -38.4311853 56.57194702 -37.40454102 56.51782227 C-32.43615645 56.53141162 -28.93447021 58.01825474 -24.52880859 60.29541016 C-23.45601654 60.84572906 -22.38322449 61.39604797 -21.27792358 61.96304321 C-20.4643338 62.38773895 -19.65074402 62.81243469 -18.8125 63.25 C-18.82915459 62.19550407 -18.82915459 62.19550407 -18.84614563 61.1197052 C-18.94646175 54.48440507 -19.02252204 47.84931749 -19.07156086 41.21342945 C-19.0976206 37.80203126 -19.1329489 34.39126126 -19.18969727 30.98022461 C-19.25457403 27.05590416 -19.2787107 23.13183526 -19.30078125 19.20703125 C-19.32658768 17.98603226 -19.3523941 16.76503326 -19.37898254 15.5070343 C-19.38210701 6.06876785 -19.38210701 6.06876785 -16.46948242 3.00268555 C-11.19346407 -0.47765404 -6.10919411 0.03159247 0 0 Z " fill="#29AE61" transform="translate(1186.8125,49.75)"/>
<path d="M0 0 C1.08925781 -0.02449219 2.17851562 -0.04898438 3.30078125 -0.07421875 C11.31934962 -0.1036627 11.31934962 -0.1036627 15.3203125 2.2734375 C18.64716971 6.14756992 18.26086236 9.5113926 18.23852539 14.40478516 C18.23867142 15.23413071 18.23881744 16.06347626 18.2389679 16.91795349 C18.23826971 19.66668285 18.23048171 22.41534494 18.22265625 25.1640625 C18.22079174 27.06692467 18.21936799 28.96978732 18.21836853 30.87265015 C18.21454599 35.88681356 18.20471793 40.90094811 18.19366455 45.9151001 C18.18344479 51.02933359 18.1788697 56.14357174 18.17382812 61.2578125 C18.16309545 71.29688769 18.14602216 81.33594145 18.125 91.375 C18.97611359 91.36389694 19.82722717 91.35279388 20.70413208 91.34135437 C28.73718929 91.2410408 36.77003521 91.16497861 44.80357552 91.11593914 C48.93345044 91.08987931 53.06280649 91.05454875 57.19238281 90.99780273 C61.18003287 90.94335183 65.16718485 90.91355228 69.15517807 90.90061378 C70.67423211 90.89139716 72.19325982 90.87339862 73.71210098 90.84634972 C75.84528073 90.80988166 77.97642043 90.80506149 80.10986328 90.80737305 C81.3223172 90.79626999 82.53477112 90.78516693 83.78396606 90.77372742 C88.26576023 91.58029808 89.90629804 93.19865381 93.125 96.375 C94.30918463 98.74336927 94.25833704 100.18461883 94.27217102 102.8270874 C94.27932632 103.76355103 94.28648163 104.70001465 94.29385376 105.66485596 C94.29654266 106.69552185 94.29923157 107.72618774 94.30200195 108.78808594 C94.30857315 109.87114014 94.31514435 110.95419434 94.32191467 112.07006836 C94.34168055 115.66650455 94.35331769 119.26289892 94.36328125 122.859375 C94.36735678 124.08569893 94.3714323 125.31202286 94.37563133 126.57550812 C94.39435207 132.39648103 94.4089144 138.21743744 94.4172433 144.03843474 C94.42603948 150.08596137 94.44532609 156.13323698 94.48168945 162.18066406 C94.5200728 168.66689134 94.53892569 175.15289206 94.54344749 181.63922882 C94.54832376 184.11277759 94.55996711 186.58632257 94.57848549 189.05980682 C94.60279155 192.52158469 94.601927 195.98249915 94.5949707 199.44433594 C94.60778076 200.46690491 94.62059082 201.48947388 94.63378906 202.54302979 C94.59036553 208.46979129 94.10020918 211.87721109 90.125 216.375 C85.48802847 219.46631435 80.77089486 218.86343329 75.3125 218.9375 C74.23162109 218.98712891 73.15074219 219.03675781 72.03710938 219.08789062 C70.98716797 219.10142578 69.93722656 219.11496094 68.85546875 219.12890625 C67.90051514 219.15283447 66.94556152 219.1767627 65.96166992 219.20141602 C61.6548514 217.94669696 59.46643757 215.12538937 57.125 211.375 C56.34166078 208.50887732 56.35994537 205.82652901 56.44384766 202.86938477 C56.44253342 201.6389016 56.44253342 201.6389016 56.44119263 200.38356018 C56.44534646 197.69351304 56.4918898 195.00601331 56.5390625 192.31640625 C56.55026258 190.443124 56.55879893 188.5698241 56.56478882 186.69651794 C56.58762334 181.78222552 56.64649974 176.86900862 56.7130127 171.95513916 C56.78538405 166.05066401 56.81276691 160.14582784 56.84773254 154.24103546 C56.90578283 145.28494385 57.02079072 136.33120889 57.125 127.375 C44.255 127.375 31.385 127.375 18.125 127.375 C18.32245007 139.94024311 18.32245007 139.94024311 18.57543945 152.50439453 C18.59005329 154.08885 18.60279184 155.67332435 18.61328125 157.2578125 C18.63886108 158.06919678 18.66444092 158.88058105 18.6907959 159.71655273 C18.69397377 163.87701806 18.41434838 166.56050998 15.78198242 169.88232422 C11.04074324 174.33036723 5.97988289 173.65788702 -0.1875 173.75 C-1.59418945 173.80607422 -1.59418945 173.80607422 -3.02929688 173.86328125 C-7.4884434 173.91984548 -10.82709817 173.94765184 -14.41796875 171.1015625 C-18.38884101 166.69509376 -19.1249654 163.94502107 -19.14242554 158.01199341 C-19.15095551 156.70255768 -19.15948547 155.39312195 -19.16827393 154.04400635 C-19.16757491 152.59460437 -19.16665186 151.14520249 -19.16552734 149.69580078 C-19.17151229 148.16801627 -19.17831776 146.64023478 -19.18588257 145.11245728 C-19.20355317 140.96364709 -19.20823839 136.8149194 -19.20951414 132.66607523 C-19.21093569 130.07361779 -19.21520534 127.48118133 -19.22050858 124.8887291 C-19.23901227 115.84328631 -19.24717875 106.79790249 -19.24560547 97.75244141 C-19.24440393 89.32269789 -19.26550769 80.89321035 -19.2970928 72.46353161 C-19.32325002 65.22433904 -19.333973 57.9852301 -19.33269465 50.74599063 C-19.33218486 46.42312998 -19.33787754 42.10049682 -19.35905075 37.77768326 C-19.37842396 33.7113451 -19.37856414 29.64545165 -19.36401749 25.57909775 C-19.36192713 24.08837993 -19.36664386 22.59763434 -19.3787384 21.10696411 C-19.39420222 19.06869035 -19.38247875 17.03026482 -19.36947632 14.99197388 C-19.37056585 13.85230227 -19.37165539 12.71263065 -19.37277794 11.53842354 C-18.75593106 7.61830618 -17.32925616 5.46068158 -14.875 2.375 C-10.22649881 -0.72400079 -5.4680658 0.00642546 0 0 Z " fill="#2D3F51" transform="translate(174.875,42.625)"/>
<path d="M0 0 C1.08990234 -0.01160156 2.17980469 -0.02320312 3.30273438 -0.03515625 C16.16423263 0.01069579 30.6200647 2.9325647 40.0625 12.375 C48.44100147 22.72160584 51.11765007 32.38200856 51.25195312 45.63623047 C51.26439308 46.66946442 51.26439308 46.66946442 51.27708435 47.72357178 C51.29436747 49.20706881 51.30956526 50.69059136 51.32286072 52.17412949 C51.34408693 54.52957567 51.37109286 56.88489546 51.39953613 59.24026489 C51.45893854 64.24346004 51.51121322 69.24671596 51.5625 74.25 C51.62199975 80.04558254 51.68450427 85.84110248 51.75437927 91.63656998 C51.78069431 93.94347303 51.80166411 96.2503835 51.8223877 98.55734253 C51.89795325 105.56166597 52.11486118 112.42935396 53.0625 119.375 C53.22765679 121.16341206 53.36200599 122.95556552 53.4375 124.75 C53.51097656 125.96816406 53.51097656 125.96816406 53.5859375 127.2109375 C53.0625 129.375 53.0625 129.375 51.01953125 131.05859375 C47.53583005 132.60946205 44.10949432 133.41881957 40.375 134.0625 C39.66964111 134.1877002 38.96428223 134.31290039 38.23754883 134.44189453 C26.81186238 136.36162925 26.81186238 136.36162925 22.0625 135.375 C19.42894477 133.3687775 18.43830664 131.27615264 17.375 128.1875 C17.12363281 127.47207031 16.87226562 126.75664062 16.61328125 126.01953125 C16.43152344 125.47683594 16.24976563 124.93414062 16.0625 124.375 C15.62679687 124.76171875 15.19109375 125.1484375 14.7421875 125.546875 C3.56418005 135.32158281 -4.91717729 137.52299463 -19.51757812 136.65185547 C-27.17823195 135.77542473 -33.00229839 131.94006204 -37.9375 126.1875 C-41.32293405 121.31577783 -43.27819787 116.03982177 -44.9375 110.375 C-45.13085938 109.77171875 -45.32421875 109.1684375 -45.5234375 108.546875 C-48.03615007 95.36698643 -46.14123168 79.88436417 -38.72265625 68.65625 C-30.54792139 58.20976168 -18.93327358 52.52304999 -5.875 50.75 C0.41772377 50.12728254 6.74719553 50.29414973 13.0625 50.375 C12.90249671 41.7656368 12.90249671 41.7656368 9.0625 34.375 C2.99904361 29.8523488 -4.7135999 30.37889867 -11.9375 31.375 C-15.27602662 32.40308932 -18.26204436 33.63230562 -21.38671875 35.18359375 C-23.96921233 36.38981204 -26.1016145 37.09809536 -28.9375 37.375 C-34.42714883 33.29295343 -38.86573693 26.55487599 -40.5625 19.9375 C-40.83352012 16.59491853 -40.66260291 14.3798494 -38.671875 11.62109375 C-28.40836666 2.05301004 -13.42093775 -0.14235526 0 0 Z " fill="#2E3F51" transform="translate(537.9375,106.625)"/>
<path d="M0 0 C0.75023437 0.45761719 1.50046875 0.91523437 2.2734375 1.38671875 C12.98273692 8.65232151 18.68958739 20.96370601 21.52172852 33.26635742 C26.50973722 59.41993133 26.50973722 59.41993133 22.86328125 67.52734375 C21.36505995 69.63900999 19.92321313 71.26673385 18 73 C17.20400391 73.85021729 16.40800781 74.70043457 15.58789062 75.57641602 C11.14516101 79.24170768 6.19905199 78.62473914 0.6953125 78.48828125 C-0.38380402 78.48120651 -1.46292053 78.47413177 -2.57473755 78.46684265 C-6.00887448 78.43893662 -9.44135894 78.37620169 -12.875 78.3125 C-15.20830973 78.28741239 -17.5416451 78.26460004 -19.875 78.24414062 C-25.58389362 78.18912244 -31.29182873 78.10553316 -37 78 C-36.85221581 79.44920368 -36.70070567 80.89802776 -36.54760742 82.34667969 C-36.46363205 83.1535321 -36.37965668 83.96038452 -36.2931366 84.79168701 C-35.58110894 90.15567071 -32.99059286 94.41877013 -28.9375 97.9375 C-23.33933534 101.86812625 -17.6303641 101.70390852 -11 101 C-5.8056905 99.44283146 -0.84946282 97.42473141 4 95 C6.6875 94.4375 6.6875 94.4375 10 95 C14.87909307 99.16583582 19.32796655 104.75637308 20.34765625 111.1953125 C20.61363841 115.32826612 20.44593061 117.37291008 18 120.8125 C2.5069903 132.10948624 -18.0931153 133.36833822 -36.56787109 130.61767578 C-50.42720731 127.52994029 -59.89390161 119.53531124 -67.36328125 107.87109375 C-68.80437272 105.30568323 -69.91587608 102.73679492 -71 100 C-71.46792969 98.82566406 -71.93585938 97.65132813 -72.41796875 96.44140625 C-76.29003362 85.28537782 -76.51042135 74.05418338 -76.5625 62.375 C-76.57117096 61.5953891 -76.57984192 60.8157782 -76.58877563 60.01254272 C-76.73081279 41.58328274 -73.82164518 21.81388125 -60.5625 7.9375 C-56.64583077 4.37689161 -52.75957165 1.3326189 -48 -1 C-47.23300781 -1.391875 -46.46601563 -1.78375 -45.67578125 -2.1875 C-32.2099539 -7.84904493 -12.48989392 -7.91583578 0 0 Z " fill="#2E3F51" transform="translate(360,112)"/>
<path d="M0 0 C0.76441406 0.32871094 1.52882813 0.65742187 2.31640625 0.99609375 C12.75690467 6.10151514 18.87303444 15.40704686 23 26 C25.72329865 34.43776139 27.64409719 43.1287928 28 52 C28.08636719 53.20785156 28.17273438 54.41570312 28.26171875 55.66015625 C28.57730239 62.77832064 28.73640875 67.85604618 23.80078125 73.2890625 C23.20652344 73.85367188 22.61226562 74.41828125 22 75 C21.37351562 75.85021729 20.74703125 76.70043457 20.1015625 77.57641602 C15.45849154 81.20454617 11.30346513 80.6267341 5.57421875 80.48828125 C4.47149124 80.48120651 3.36876373 80.47413177 2.23262024 80.46684265 C-1.28311517 80.43889489 -4.79724743 80.37615165 -8.3125 80.3125 C-10.69854468 80.28741781 -13.08461437 80.26460451 -15.47070312 80.24414062 C-21.31434737 80.18906692 -27.15705915 80.10543545 -33 80 C-32.55728528 82.25831505 -32.1033019 84.51442311 -31.64453125 86.76953125 C-31.26711792 88.65442261 -31.26711792 88.65442261 -30.88208008 90.57739258 C-29.43050696 96.20972125 -27.11292644 98.45395627 -22.4375 101.875 C-11.5518738 105.43756857 -1.86877829 101.93438914 8 97 C10.6875 96.4375 10.6875 96.4375 14 97 C18.87909307 101.16583582 23.32796655 106.75637308 24.34765625 113.1953125 C24.61363841 117.32826612 24.44593061 119.37291008 22 122.8125 C10.43708836 131.24378974 -2.07222506 133.19900399 -16.0625 133.3125 C-17.22716797 133.34150391 -18.39183594 133.37050781 -19.59179688 133.40039062 C-33.16759869 133.4987112 -45.52648717 129.2584476 -55.625 120.0625 C-71.90426301 102.87409839 -72.59172163 77.79524104 -72.34375 55.55859375 C-71.83965924 38.93830134 -68.28926073 22.53383974 -56.6875 10.125 C-42.5906945 -3.09813413 -17.93559078 -8.01101432 0 0 Z " fill="#2D3F51" transform="translate(811,110)"/>
<path d="M0 0 C1.11052734 -0.01160156 2.22105469 -0.02320312 3.36523438 -0.03515625 C4.44224609 -0.03128906 5.51925781 -0.02742188 6.62890625 -0.0234375 C8.08598999 -0.01836182 8.08598999 -0.01836182 9.57250977 -0.01318359 C13.26335122 0.48689633 15.38876963 1.18709382 18.4375 3.375 C19.9247914 6.19029822 20.65929126 9.12124209 21.4296875 12.19921875 C21.66535431 13.06061966 21.90102112 13.92202057 22.14382935 14.80952454 C22.88940545 17.55499908 23.60121791 20.307964 24.3125 23.0625 C24.81290204 24.92832636 25.31548167 26.79357017 25.8203125 28.65820312 C27.0513869 33.22410009 28.25226345 37.79700011 29.4375 42.375 C31.06595414 39.34990644 32.11365223 36.38587077 33.05859375 33.0859375 C33.35443359 32.06113281 33.65027344 31.03632813 33.95507812 29.98046875 C34.41043945 28.38138672 34.41043945 28.38138672 34.875 26.75 C35.77396007 23.62200561 36.6738169 20.49444453 37.58544922 17.37011719 C38.13848791 15.42608319 38.66278421 13.47355561 39.15283203 11.51269531 C39.38212402 10.63452148 39.61141602 9.75634766 39.84765625 8.8515625 C40.03593994 8.08150879 40.22422363 7.31145508 40.41821289 6.51806641 C41.86696137 3.47205104 43.60160208 2.16707962 46.4375 0.375 C49.28076172 -0.12670898 49.28076172 -0.12670898 52.3671875 -0.12109375 C53.49253906 -0.12173828 54.61789062 -0.12238281 55.77734375 -0.12304688 C56.94394531 -0.10306641 58.11054688 -0.08308594 59.3125 -0.0625 C60.47136719 -0.06958984 61.63023437 -0.07667969 62.82421875 -0.08398438 C69.11238369 -0.03727229 73.89266947 0.32776806 79.4375 3.375 C79.12071846 10.95965525 76.20983388 16.40333266 72.625 23 C72.04693604 24.08651855 71.46887207 25.17303711 70.87329102 26.29248047 C69.07550928 29.66115132 67.25890682 33.01905301 65.4375 36.375 C64.86837891 37.42945313 64.29925781 38.48390625 63.71289062 39.5703125 C61.1553648 44.30758191 58.5868233 49.03861286 55.99609375 53.7578125 C55.35003174 54.94745605 55.35003174 54.94745605 54.69091797 56.16113281 C53.88821964 57.57891006 53.04117177 58.97300033 52.14111328 60.33105469 C50.79569673 62.2976946 50.79569673 62.2976946 49.4375 65.375 C50.54560718 69.77192958 52.4722381 73.62967454 54.5625 77.63671875 C54.86576706 78.22096115 55.16903412 78.80520355 55.48149109 79.40715027 C56.46256689 81.29452156 57.44986899 83.17855194 58.4375 85.0625 C59.11727495 86.36652642 59.79671616 87.67072686 60.47583008 88.97509766 C62.15118179 92.19009347 63.8318621 95.40226475 65.51470947 98.61334229 C66.84949542 101.16152185 68.18025844 103.71180029 69.51171875 106.26171875 C70.38229976 107.92474768 71.25335145 109.58753035 72.125 111.25 C72.50978516 111.98436279 72.89457031 112.71872559 73.29101562 113.4753418 C75.02337696 116.76289114 76.79756774 120.00487259 78.68359375 123.20703125 C80.42902016 126.35968341 81.04033921 127.85843793 80.4375 131.375 C78.4375 133.375 78.4375 133.375 74.99755859 133.60205078 C73.52698021 133.60173369 72.05637858 133.59040987 70.5859375 133.5703125 C69.81190582 133.5674826 69.03787415 133.56465271 68.24038696 133.56173706 C65.76426843 133.55052754 63.2885095 133.52542203 60.8125 133.5 C59.13542188 133.48997118 57.45833811 133.48084516 55.78125 133.47265625 C51.66652777 133.45058574 47.55207489 133.41605102 43.4375 133.375 C41.56547087 129.15440137 39.94444296 125.07046947 38.71875 120.609375 C38.27982422 119.02576172 38.27982422 119.02576172 37.83203125 117.41015625 C37.53683594 116.32605469 37.24164063 115.24195313 36.9375 114.125 C36.49470703 112.52205078 36.49470703 112.52205078 36.04296875 110.88671875 C35.45621262 108.75940466 34.87282615 106.631158 34.29296875 104.50195312 C33.72060065 102.40980398 33.13980233 100.31994372 32.55078125 98.23242188 C32.27621094 97.25337891 32.00164062 96.27433594 31.71875 95.265625 C31.47189453 94.39454102 31.22503906 93.52345703 30.97070312 92.62597656 C30.4375 90.375 30.4375 90.375 30.4375 87.375 C29.7775 87.375 29.1175 87.375 28.4375 87.375 C28.32921875 88.47585937 28.2209375 89.57671875 28.109375 90.7109375 C27.45179327 95.94170125 26.10024812 100.92927484 24.6875 106 C24.42163086 106.96260742 24.15576172 107.92521484 23.88183594 108.91699219 C18.02301235 129.78948765 18.02301235 129.78948765 14.4375 133.375 C11.87999547 133.5745697 9.43311859 133.65486826 6.875 133.640625 C6.12790771 133.64253845 5.38081543 133.6444519 4.61108398 133.64642334 C3.03075829 133.64778498 1.45042142 133.64409 -0.12988281 133.63574219 C-2.55298922 133.625042 -4.97535423 133.63563779 -7.3984375 133.6484375 C-8.93229331 133.6471159 -10.46614865 133.6445535 -12 133.640625 C-12.72711182 133.64467346 -13.45422363 133.64872192 -14.20336914 133.65289307 C-19.33257639 133.60492361 -19.33257639 133.60492361 -21.5625 131.375 C-21.23391358 126.83921879 -19.81209194 123.38880426 -17.75 119.375 C-17.44868164 118.785979 -17.14736328 118.19695801 -16.83691406 117.59008789 C-13.92192874 111.94783544 -10.85996122 106.38388423 -7.8125 100.8125 C-7.30589844 99.884375 -6.79929687 98.95625 -6.27734375 98 C-5.50777344 96.59041016 -5.50777344 96.59041016 -4.72265625 95.15234375 C-4.20461426 94.20343262 -3.68657227 93.25452148 -3.15283203 92.27685547 C-2.08326248 90.32522764 -1.00862516 88.37636946 0.07080078 86.43017578 C1.64568902 83.58645623 3.19952279 80.73208464 4.75 77.875 C5.23629883 77.00931396 5.72259766 76.14362793 6.22363281 75.25170898 C6.6615918 74.43645752 7.09955078 73.62120605 7.55078125 72.78125 C7.94048096 72.07291016 8.33018066 71.36457031 8.73168945 70.63476562 C9.97341773 66.65917347 8.89255051 63.43497838 7.28930664 59.70043945 C6.81356201 58.80542725 6.33781738 57.91041504 5.84765625 56.98828125 C5.31527344 55.97644775 4.78289062 54.96461426 4.234375 53.92211914 C3.37585938 52.32098267 3.37585938 52.32098267 2.5 50.6875 C1.91605469 49.58204834 1.33210938 48.47659668 0.73046875 47.33764648 C-1.02692427 44.01303685 -2.79455014 40.69400431 -4.5625 37.375 C-7.56972378 31.6848704 -10.5632604 25.9875338 -13.55371094 20.28857422 C-14.45721678 18.57471198 -15.37238154 16.86700791 -16.2890625 15.16015625 C-16.75054687 14.28230469 -17.21203125 13.40445313 -17.6875 12.5 C-18.06132812 11.80132812 -18.43515625 11.10265625 -18.8203125 10.3828125 C-19.71769037 7.9551692 -19.69669054 5.94251241 -19.5625 3.375 C-13.11484548 -0.13178188 -7.23614188 -0.07585938 0 0 Z " fill="#2E4051" transform="translate(406.5625,107.625)"/>
<path d="M0 0 C2.671875 2.046875 2.671875 2.046875 4.671875 5.046875 C5.6124988 12.43749058 3.18799162 18.56981806 -0.328125 25.046875 C-2.31640625 27.4140625 -2.31640625 27.4140625 -4.328125 29.046875 C-7.45235171 28.91392918 -9.74369616 28.31575285 -12.578125 27.01171875 C-15.95834234 25.82576181 -18.81325811 25.74585318 -22.390625 25.734375 C-23.59847656 25.71761719 -24.80632813 25.70085937 -26.05078125 25.68359375 C-29.53860262 26.07020565 -30.95523231 26.49456848 -33.328125 29.046875 C-34.01091684 33.15178843 -34.01091684 33.15178843 -33.328125 37.046875 C-29.63327442 41.53753955 -25.27699655 43.94740335 -20.265625 46.671875 C-9.52800624 52.75136405 2.46868993 61.02284825 6.76171875 73.1171875 C10.03701775 85.27161739 8.91638536 100.1683606 2.671875 111.046875 C-3.74496714 121.23414545 -12.65381683 127.27379886 -24.328125 130.046875 C-28.37839155 130.50297191 -32.37971729 130.57077233 -36.453125 130.546875 C-38.10211792 130.54046997 -38.10211792 130.54046997 -39.78442383 130.53393555 C-51.57979265 130.28854193 -61.44258968 128.20387448 -70.328125 120.046875 C-72.22499709 116.25313083 -71.93761669 112.16956878 -71.328125 108.046875 C-69.74944574 104.37565107 -67.70831189 101.24684122 -65.328125 98.046875 C-64.89886719 97.46164063 -64.46960938 96.87640625 -64.02734375 96.2734375 C-62.828125 94.859375 -62.828125 94.859375 -60.328125 93.046875 C-56.1284121 92.85597896 -53.4912601 94.49981561 -50.015625 96.609375 C-45.36669579 99.30951065 -41.62706714 99.97319383 -36.328125 99.046875 C-32.26149838 97.49416302 -30.75292898 96.68408098 -28.328125 93.046875 C-27.81479792 88.32426583 -28.61133529 85.88685513 -31.328125 82.046875 C-33.42397775 80.36597437 -33.42397775 80.36597437 -35.86328125 79.03125 C-36.75080078 78.50684326 -37.63832031 77.98243652 -38.55273438 77.44213867 C-39.48923828 76.89920166 -40.42574219 76.35626465 -41.390625 75.796875 C-53.71917899 68.39660823 -64.58660798 61.21062565 -69.140625 46.921875 C-72.03073509 34.89635945 -71.16383219 22.27759941 -64.8203125 11.48046875 C-50.52408414 -8.16853349 -20.79927564 -12.20614768 0 0 Z " fill="#2D3F51" transform="translate(917.328125,112.953125)"/>
<path d="M0 0 C0.98935547 -0.03738281 1.97871094 -0.07476562 2.99804688 -0.11328125 C7.383249 -0.16636372 10.30928773 -0.01923056 14.234375 2.03515625 C17.23149601 7.51066579 16.5808069 13.06711945 16.375 19.1875 C16.35244141 20.45271484 16.32988281 21.71792969 16.30664062 23.02148438 C16.24779078 26.14052619 16.1656137 29.25715902 16.0625 32.375 C16.88234375 32.32859375 17.7021875 32.2821875 18.546875 32.234375 C19.62453125 32.19828125 20.7021875 32.1621875 21.8125 32.125 C23.41351562 32.05539063 23.41351562 32.05539063 25.046875 31.984375 C28.73049868 32.46152833 29.79777039 33.50658749 32.0625 36.375 C33.52680695 39.96137745 33.30241912 43.92231384 33.375 47.75 C33.43107422 49.67972656 33.43107422 49.67972656 33.48828125 51.6484375 C32.99688001 55.94932544 31.7723512 58.04675975 29.0625 61.375 C26.41791621 62.69729189 24.38488699 62.47177194 21.4375 62.4375 C20.43460938 62.42847656 19.43171875 62.41945312 18.3984375 62.41015625 C17.62757813 62.39855469 16.85671875 62.38695312 16.0625 62.375 C16.14676907 71.72823731 16.24159941 81.0812898 16.35002708 90.43427849 C16.40003668 94.77695376 16.44636609 99.11960414 16.484375 103.46240234 C16.52116919 107.651109 16.5675127 111.8396098 16.62056351 116.02814102 C16.63913878 117.6285352 16.65423509 119.22897357 16.66584396 120.82943344 C16.68265324 123.06602954 16.71167413 125.30215091 16.74365234 127.53857422 C16.75697601 128.81320526 16.77029968 130.0878363 16.7840271 131.40109253 C16.75443792 134.49233979 16.75443792 134.49233979 19.0625 136.375 C21.60118552 136.42746286 21.60118552 136.42746286 24.4375 136.1875 C29.72798384 136.09759635 29.72798384 136.09759635 32.625 138.5 C35.72407571 144.69815143 37.17598719 150.43890272 36.0625 157.375 C32.24560173 162.81118845 26.41327803 165.02239411 20.0625 166.375 C9.80654981 167.30308713 -1.5360896 168.19253795 -9.9375 161.375 C-16.94580191 155.04293775 -20.68353443 146.65733314 -21.9375 137.375 C-22.20590749 131.53878061 -22.17088341 125.71211862 -22.1328125 119.87109375 C-22.12907654 118.18001982 -22.12623232 116.4889437 -22.12423706 114.79786682 C-22.11664649 110.37395113 -22.09703795 105.95016938 -22.0748291 101.52630615 C-22.05427144 97.00127982 -22.04521424 92.47623158 -22.03515625 87.95117188 C-22.01378721 79.09238948 -21.97970733 70.23370593 -21.9375 61.375 C-24.2475 61.375 -26.5575 61.375 -28.9375 61.375 C-32.09954823 56.18556992 -32.3699779 52.13371623 -32.25 46.25 C-32.25322266 45.45207031 -32.25644531 44.65414062 -32.25976562 43.83203125 C-32.19198423 36.45002089 -32.19198423 36.45002089 -29.9375 33.375 C-27.22870665 32.02060332 -24.92816732 32.30998549 -21.9375 32.375 C-21.81632813 31.10785156 -21.69515625 29.84070313 -21.5703125 28.53515625 C-21.4013266 26.83590914 -21.23203963 25.13669195 -21.0625 23.4375 C-20.94455078 22.19129883 -20.94455078 22.19129883 -20.82421875 20.91992188 C-19.33106254 6.160647 -19.33106254 6.160647 -16.61767578 2.68383789 C-12.08040944 -0.85064117 -5.46261806 0.07798676 0 0 Z " fill="#2E4052" transform="translate(960.9375,76.625)"/>
<path d="M0 0 C0.88171875 -0.020625 1.7634375 -0.04125 2.671875 -0.0625 C8.32689625 -0.09616084 12.25234209 0.55492794 17.25 3.25 C19.78402521 5.78402521 19.5061563 6.65937573 19.52415466 10.17111206 C19.53911736 11.73159775 19.53911736 11.73159775 19.55438232 13.3236084 C19.555047 14.46962524 19.55571167 15.61564209 19.55639648 16.79638672 C19.56472 17.99969635 19.57304352 19.20300598 19.58161926 20.44277954 C19.60162873 23.74868043 19.61236766 27.05432908 19.61744571 30.36026907 C19.62108557 32.42504701 19.6273237 34.48980058 19.6344471 36.55456924 C19.65895411 43.75627968 19.671996 50.95791797 19.67553711 58.15966797 C19.67917256 64.87516517 19.70906479 71.59020536 19.75094169 78.30556285 C19.78562192 84.06869129 19.80108516 89.83166814 19.80178314 95.59490025 C19.80257681 99.03809642 19.81135505 102.4808274 19.83978081 105.92391586 C19.87077724 109.76439901 19.86191265 113.60422423 19.84936523 117.44482422 C19.86419952 118.5867926 19.87903381 119.72876099 19.89431763 120.90533447 C19.82250763 128.59822597 19.82250763 128.59822597 16.90003967 131.92532349 C11.36185485 134.6936984 6.44513661 134.46875091 0.375 134.5 C-1.11580078 134.5309375 -1.11580078 134.5309375 -2.63671875 134.5625 C-11.71989743 134.61113817 -11.71989743 134.61113817 -15.75 131.25 C-18.28402521 128.71597479 -18.0061563 127.84062427 -18.02415466 124.32888794 C-18.03412979 123.28856415 -18.04410492 122.24824036 -18.05438232 121.1763916 C-18.055047 120.03037476 -18.05571167 118.88435791 -18.05639648 117.70361328 C-18.06472 116.50030365 -18.07304352 115.29699402 -18.08161926 114.05722046 C-18.10162873 110.75131957 -18.11236766 107.44567092 -18.11744571 104.13973093 C-18.12108557 102.07495299 -18.1273237 100.01019942 -18.1344471 97.94543076 C-18.15895411 90.74372032 -18.171996 83.54208203 -18.17553711 76.34033203 C-18.17917256 69.62483483 -18.20906479 62.90979464 -18.25094169 56.19443715 C-18.28562192 50.43130871 -18.30108516 44.66833186 -18.30178314 38.90509975 C-18.30257681 35.46190358 -18.31135505 32.0191726 -18.33978081 28.57608414 C-18.37077724 24.73560099 -18.36191265 20.89577577 -18.34936523 17.05517578 C-18.36419952 15.9132074 -18.37903381 14.77123901 -18.39431763 13.59466553 C-18.32250763 5.90177403 -18.32250763 5.90177403 -15.40003967 2.57467651 C-10.1650922 -0.04211901 -5.72927876 0.03292689 0 0 Z " fill="#28AE60" transform="translate(1068.75,107.75)"/>
<path d="M0 0 C0.94166016 -0.01611328 1.88332031 -0.03222656 2.85351562 -0.04882812 C11.75467974 -0.05510982 11.75467974 -0.05510982 15.5625 3.3125 C18.46579939 7.28958947 18.94753728 10.14273463 18.98242188 15.02709961 C18.99089142 15.68143478 18.99936096 16.33576996 19.00808716 17.00993347 C19.03138691 19.16177076 19.03248112 21.31289013 19.03125 23.46484375 C19.03835567 24.96790347 19.04605526 26.47096049 19.05432129 27.97401428 C19.06774975 31.12036688 19.06934224 34.26646861 19.06347656 37.4128418 C19.05758053 41.43586642 19.08817372 45.45768418 19.12859344 49.48047543 C19.15449976 52.58356662 19.15734531 55.68636827 19.15370178 58.78955269 C19.15539019 60.27227373 19.16500592 61.75500854 19.18284607 63.23762321 C19.32234522 76.26314916 19.32234522 76.26314916 16.27539062 80.14282227 C10.6848715 84.61392949 6.67380094 84.67741876 -0.3125 84.6875 C-1.19808594 84.71199219 -2.08367188 84.73648438 -2.99609375 84.76171875 C-8.62445571 84.78688281 -12.06760235 84.21664053 -16.4375 80.3125 C-18.74881537 76.81818327 -18.70185583 73.72954166 -18.72802734 69.60375977 C-18.73474457 68.93821075 -18.74146179 68.27266174 -18.74838257 67.58694458 C-18.76734018 65.392522 -18.77128538 63.19840556 -18.7734375 61.00390625 C-18.77986635 59.47460302 -18.78659477 57.94530102 -18.79360962 56.41600037 C-18.80557629 53.21244454 -18.80929101 50.00899652 -18.80810547 46.80541992 C-18.80790216 42.70511345 -18.83521842 38.60549917 -18.86964989 34.50535679 C-18.89191087 31.3474359 -18.89594329 28.18968191 -18.89488602 25.0316906 C-18.89724265 23.52023874 -18.90606978 22.00878233 -18.92155075 20.49740791 C-18.94119869 18.38132633 -18.93537969 16.26674163 -18.92333984 14.15063477 C-18.92618988 12.94802505 -18.92903992 11.74541534 -18.93197632 10.50636292 C-18.34074217 6.68753325 -17.10182003 5.05579697 -14.4375 2.3125 C-10.0055624 -0.62861927 -5.13549701 -0.0175034 0 0 Z " fill="#29AE61" transform="translate(705.4375,41.6875)"/>
<path d="M0 0 C1.26457031 -0.02513672 1.26457031 -0.02513672 2.5546875 -0.05078125 C5.81132379 0.40950321 7.53130241 1.2827409 10.125 3.3125 C10.74645996 6.06930542 10.74645996 6.06930542 10.74023438 9.44873047 C10.74953979 10.71369354 10.75884521 11.97865662 10.76843262 13.2819519 C10.75284288 14.66454173 10.73625755 16.04712063 10.71875 17.4296875 C10.71703869 18.84831643 10.71710479 20.26694853 10.71887207 21.68557739 C10.71721796 24.65999582 10.69850977 27.63366135 10.66699219 30.60791016 C10.62738541 34.41341038 10.62293773 38.21792106 10.63045502 42.02358818 C10.63353122 44.95424401 10.62138013 47.88467899 10.60432434 50.81528091 C10.59731 52.21784198 10.59416791 53.62042809 10.59501648 55.02300644 C10.59321065 56.98790124 10.56951364 58.95273873 10.54492188 60.91748047 C10.53650269 62.03428192 10.5280835 63.15108337 10.51940918 64.30172729 C9.99686026 68.29067099 8.56287338 71.03834487 5.546875 73.7109375 C2.23891674 75.64315611 0.37354456 76.30828738 -3.5625 76.375 C-7.58622791 75.08437029 -8.71841156 73.90681407 -10.875 70.3125 C-14.78673639 60.9677964 -15.22339804 51.08643271 -15.19067383 41.08251953 C-15.18752702 39.07969726 -15.21180958 37.07689341 -15.23632812 35.07421875 C-15.24184413 23.87672296 -14.68129582 11.67115676 -7.875 2.3125 C-4.68080328 0.18303552 -3.69351004 0.01683971 0 0 Z " fill="#FBFDFC" transform="translate(1157.875,136.6875)"/>
<path d="M0 0 C1.06734375 -0.0103125 2.1346875 -0.020625 3.234375 -0.03125 C11.89381648 0.0979954 11.89381648 0.0979954 15.6875 3.171875 C20.24419369 8.25197269 19.25806715 13.9016707 19.29516602 20.38867188 C19.31232382 22.47854048 19.35620219 24.56680334 19.40039062 26.65625 C19.41052311 27.99478007 19.41903748 29.33332356 19.42578125 30.671875 C19.44036377 31.88456055 19.45494629 33.09724609 19.4699707 34.34667969 C18.79145383 39.26019926 16.57952024 42.37915032 12.87109375 45.59765625 C8.60917359 47.30822285 4.61285492 47.22395587 0.0625 47.1875 C-1.25911133 47.2174707 -1.25911133 47.2174707 -2.60742188 47.24804688 C-8.20706256 47.24385239 -11.65226823 46.62145443 -16 42.75 C-19.31883028 37.74201339 -18.4486674 31.37531794 -18.48046875 25.58813477 C-18.49985338 23.45364451 -18.56190683 21.32303735 -18.625 19.18945312 C-18.8139831 7.77658269 -18.8139831 7.77658269 -15.71875 3.31640625 C-11.27676064 -0.73855179 -5.67947996 -0.19205971 0 0 Z " fill="#29AE61" transform="translate(250,42.25)"/>
<path d="M0 0 C0.84240234 -0.01224609 1.68480469 -0.02449219 2.55273438 -0.03710938 C8.96562987 -0.05215135 14.91015363 0.45453882 19.6875 5.1875 C20.18920898 8.234375 20.18920898 8.234375 20.18359375 11.9375 C20.18504898 12.59202148 20.18650421 13.24654297 20.18800354 13.92089844 C20.18634579 15.30277972 20.17479793 16.6846797 20.15405273 18.06640625 C20.12509607 20.18048592 20.13344292 22.29205736 20.14648438 24.40625 C20.14024657 25.75001218 20.13185528 27.09376644 20.12109375 28.4375 C20.11134521 29.65953125 20.10159668 30.8815625 20.09155273 32.140625 C19.6875 35.1875 19.6875 35.1875 18.47290039 36.984375 C12.67538517 40.89113762 6.92881086 40.5210403 0.1875 40.5 C-0.84503906 40.51611328 -1.87757813 40.53222656 -2.94140625 40.54882812 C-12.44524709 40.55495964 -12.44524709 40.55495964 -16.3125 37.1875 C-18.4629316 32.88663681 -17.62161098 27.21225083 -17.66259766 22.43896484 C-17.67915925 21.02473497 -17.70645306 19.61058887 -17.74462891 18.19677734 C-17.79947327 16.15418259 -17.82127728 14.11354482 -17.8359375 12.0703125 C-17.85575684 10.84715332 -17.87557617 9.62399414 -17.89599609 8.36376953 C-17.3125 5.1875 -17.3125 5.1875 -14.96728516 2.81982422 C-9.97973418 -0.24682704 -5.66386764 0.00427462 0 0 Z " fill="#2E4052" transform="translate(1017.3125,201.8125)"/>
<path d="M0 0 C0.95068359 -0.020625 1.90136719 -0.04125 2.88085938 -0.0625 C11.77249577 -0.11220866 11.77249577 -0.11220866 15.6875 3.25 C19.99524157 8.00956119 19.16482348 13.07278522 19.125 19.1875 C19.1549707 20.81461914 19.1549707 20.81461914 19.18554688 22.47460938 C19.18070638 30.35009497 19.18070638 30.35009497 16.97265625 34.37890625 C11.74574483 38.65871919 6.75290039 38.61498784 0.25 38.625 C-0.58337891 38.64949219 -1.41675781 38.67398438 -2.27539062 38.69921875 C-7.77013117 38.72528076 -11.04001866 38.02628064 -15.3125 34.25 C-19.25923833 29.74183604 -18.86312289 24.57601447 -18.875 18.875 C-18.91173828 17.95460937 -18.94847656 17.03421875 -18.98632812 16.0859375 C-19.02503608 10.06469965 -18.03148088 6.84529665 -13.80053711 2.50537109 C-9.82061098 -0.85226305 -4.95365514 0.02654336 0 0 Z " fill="#2BAF63" transform="translate(174.3125,223.75)"/>
<path d="M0 0 C0.95068359 -0.020625 1.90136719 -0.04125 2.88085938 -0.0625 C9.60888212 -0.10011299 12.91958253 0.74704557 17.97265625 5.31640625 C20.4681411 9.58544752 20.23461812 13.33247829 20.125 18.1875 C20.13208984 19.06857422 20.13917969 19.94964844 20.14648438 20.85742188 C20.09609374 26.0321524 19.66007508 29.83495084 16.6875 34.25 C11.98990275 38.5871927 6.82374732 37.76438424 0.75 37.75 C-0.33474609 37.77835937 -1.41949219 37.80671875 -2.53710938 37.8359375 C-10.50937651 37.85553742 -10.50937651 37.85553742 -14.50390625 34.84375 C-18.09733464 29.69032355 -17.60469146 25.15041577 -17.6875 19 C-17.72488281 17.96230469 -17.76226563 16.92460937 -17.80078125 15.85546875 C-17.8996903 7.25038138 -17.8996903 7.25038138 -14.9140625 3.578125 C-10.18807546 -0.65113667 -6.10561696 0.03271596 0 0 Z " fill="#29AE61" transform="translate(631.3125,223.75)"/>
<path d="M0 0 C0.82564453 -0.020625 1.65128906 -0.04125 2.50195312 -0.0625 C8.29322604 -0.09900921 12.53440461 0.83111758 17.8125 3.25 C21.52865164 6.96615164 20.26955417 13.1057057 20.3125 18.125 C20.35375 19.32253906 20.395 20.52007812 20.4375 21.75390625 C20.46682138 25.02690518 20.41533968 28.03217063 19.8125 31.25 C14.05790407 36.95610214 6.90256526 36.4926531 -0.74438477 36.50317383 C-6.17465466 36.43033514 -10.35631549 35.91208126 -15.1875 33.25 C-18.36204724 28.48817915 -17.59673149 23.41280503 -17.625 17.8125 C-17.65787109 16.66716797 -17.69074219 15.52183594 -17.72460938 14.34179688 C-17.778701 5.93792504 -17.778701 5.93792504 -14.84765625 2.52734375 C-9.74104467 0.07527035 -5.54973897 0.03386568 0 0 Z " fill="#29AE61" transform="translate(1068.1875,59.75)"/>
<path d="M0 0 C0.89396484 -0.01611328 1.78792969 -0.03222656 2.70898438 -0.04882812 C9.2453678 -0.05368067 12.60144881 0.88094771 17.34375 5.56640625 C20.54184708 10.67609318 19.75078261 16.49957858 19.0625 22.3125 C17.64053533 26.17608205 15.49681899 28.02295401 12.0625 30.3125 C8.30809915 30.80061489 4.53273974 30.72899774 0.75 30.75 C-0.28318359 30.78287109 -1.31636719 30.81574219 -2.38085938 30.84960938 C-10.91349748 30.90981401 -10.91349748 30.90981401 -14.60546875 27.91015625 C-18.25741921 23.84223823 -18.17961192 20.76972065 -18.25 15.5 C-18.27900391 14.78779297 -18.30800781 14.07558594 -18.33789062 13.34179688 C-18.3815872 9.70825889 -18.08069627 7.54610275 -16.16796875 4.42578125 C-11.17091558 -0.30872973 -6.57078903 -0.02358503 0 0 Z " fill="#2AAF62" transform="translate(249.9375,95.6875)"/>
<path d="M0 0 C0.12400035 4.32322461 0.21452256 8.64549602 0.2746582 12.9699707 C0.29973644 14.43955525 0.33380856 15.90901587 0.37719727 17.37817383 C0.43815499 19.49591681 0.46627316 21.61200576 0.48828125 23.73046875 C0.51446533 25.00301514 0.54064941 26.27556152 0.56762695 27.58666992 C-0.1506607 31.90597303 -1.65846901 33.27009538 -5 36 C-9.23331432 38.82220955 -13.02868595 38.78619823 -18 38 C-21.39754704 35.45183972 -23.43654773 32.9154283 -25 29 C-25.74015455 22.01156406 -26.07381934 14.78789269 -22.33203125 8.61328125 C-16.33648967 1.35181886 -8.98139136 -0.10132852 0 0 Z " fill="#FBFBFB" transform="translate(551,178)"/>
<path d="M0 0 C5.16517992 3.02114297 6.65777714 5.8867703 8.41333008 11.47045898 C9.38941175 15.67902419 9.31644182 19.766341 9.1875 24.0625 C9.125625 27.011875 9.06375 29.96125 9 33 C0.09 33 -8.82 33 -18 33 C-18.31235647 21.54692955 -18.46050419 11.32563024 -11 2 C-7.2867146 -0.4755236 -4.30348954 -0.76615155 0 0 Z " fill="#FBFBFC" transform="translate(795,134)"/>
<path d="M0 0 C4.82412992 2.78727507 6.98816089 6.63324894 8.57202148 11.90332031 C9.03584737 14.17561736 9.11331895 16.228795 9.09765625 18.546875 C9.09515869 19.30838867 9.09266113 20.06990234 9.09008789 20.85449219 C9.08098389 21.81000977 9.07187988 22.76552734 9.0625 23.75 C9.041875 26.8025 9.02125 29.855 9 33 C0.09 33 -8.82 33 -18 33 C-18.31235647 21.54692955 -18.46050419 11.32563024 -11 2 C-7.30067202 -0.46621866 -4.29258477 -0.67202893 0 0 Z " fill="#FBFBFC" transform="translate(340,134)"/>
</svg>
